<?xml version="1.0" standalone="no"?>
<!DOCTYPE svg PUBLIC "-//W3C//DTD SVG 20010904//EN"
 "http://www.w3.org/TR/2001/REC-SVG-20010904/DTD/svg10.dtd">
<svg version="1.0" xmlns="http://www.w3.org/2000/svg"
 width="512.000000pt" height="512.000000pt" viewBox="0 0 512.000000 512.000000"
 preserveAspectRatio="xMidYMid meet">
<metadata>
Created by potrace 1.16, written by Peter Selinger 2001-2019
</metadata>
<g transform="translate(0.000000,512.000000) scale(0.100000,-0.100000)"
fill="#000000" stroke="none">
<path d="M4063 4648 c-90 -90 -169 -170 -173 -179 -5 -9 -17 -135 -25 -280
l-17 -264 -797 -800 c-439 -440 -801 -807 -803 -815 -3 -8 -2 -25 3 -37 6 -17
16 -23 41 -23 29 0 102 70 830 798 439 438 802 798 806 799 4 1 124 9 266 18
142 9 266 20 275 25 9 5 89 83 179 173 131 132 163 170 160 188 -6 43 -28 45
-286 30 -133 -8 -245 -12 -248 -8 -4 4 -1 116 7 249 15 258 13 280 -30 286
-18 3 -56 -29 -188 -160z m111 -242 c-13 -205 -10 -230 23 -240 10 -2 106 1
213 8 107 7 198 10 202 6 4 -3 -36 -49 -90 -103 l-97 -96 -230 -14 c-126 -8
-234 -12 -238 -10 -5 3 -6 28 -3 56 4 29 11 133 16 232 l11 180 97 97 c53 54
99 94 102 90 4 -4 1 -97 -6 -206z"/>
<path d="M2165 4298 c-258 -15 -566 -103 -795 -226 -832 -447 -1236 -1395
-984 -2306 148 -532 533 -995 1039 -1249 467 -234 1025 -269 1545 -97 191 63
487 238 659 388 84 74 235 244 317 357 121 168 257 474 304 687 47 210 64 473
45 672 -27 263 -129 567 -273 811 -53 91 -86 108 -118 60 -15 -23 -14 -27 17
-82 142 -252 209 -429 253 -668 23 -125 27 -173 27 -342 1 -603 -278 -1157
-763 -1519 -495 -369 -1139 -470 -1742 -273 -422 138 -812 464 -1044 871 -321
567 -319 1296 6 1864 295 515 788 850 1382 939 119 18 392 21 511 6 250 -32
520 -126 734 -255 84 -50 135 -46 135 11 0 54 -320 212 -582 288 -184 53 -442
77 -673 63z"/>
<path d="M2150 3745 c-8 -2 -51 -9 -95 -16 -88 -13 -245 -62 -346 -107 -68
-31 -226 -125 -269 -161 -152 -127 -246 -227 -322 -342 -449 -675 -272 -1566
401 -2014 417 -278 968 -312 1424 -89 197 96 387 254 522 433 65 87 156 251
194 351 29 75 69 230 81 315 12 90 12 290 0 379 -23 159 -100 398 -153 478
-24 35 -59 47 -83 28 -22 -19 -17 -45 26 -141 89 -198 126 -385 117 -599 -13
-310 -103 -552 -297 -793 -254 -316 -633 -497 -1040 -497 -349 0 -677 131
-924 369 -270 261 -416 600 -416 966 0 517 284 975 748 1209 352 177 817 179
1164 5 63 -32 99 -36 118 -15 19 24 7 59 -28 83 -80 53 -320 130 -477 153 -63
9 -308 12 -345 5z"/>
<path d="M2127 3174 c-171 -38 -312 -114 -435 -234 -191 -185 -292 -459 -263
-715 39 -343 236 -605 553 -736 115 -47 211 -62 367 -57 120 4 148 9 231 37
163 55 289 138 392 258 148 172 218 360 218 589 0 205 -53 323 -114 255 -17
-18 -17 -24 -2 -96 40 -191 4 -403 -95 -572 -53 -90 -200 -232 -287 -277 -138
-71 -202 -88 -353 -93 -117 -5 -147 -2 -220 17 -281 72 -498 287 -570 565 -42
160 -23 371 45 522 100 218 303 380 547 438 85 20 240 19 334 -2 71 -15 76
-15 95 2 38 34 19 70 -50 95 -56 19 -312 23 -393 4z"/>
<path d="M2171 2604 c-64 -27 -118 -81 -153 -151 -28 -58 -33 -77 -33 -143 0
-67 4 -84 35 -146 25 -50 50 -81 87 -111 64 -51 116 -68 209 -67 125 1 243 77
289 187 28 68 13 112 -37 105 -15 -2 -33 -22 -58 -66 -75 -133 -208 -169 -328
-89 -147 100 -130 307 33 391 43 22 61 37 63 54 7 50 -40 66 -107 36z"/>
</g>
</svg>
