<?xml version="1.0" encoding="utf-8"?>
<!-- Svg Vector Icons : http://www.onlinewebfonts.com/icon -->
<!DOCTYPE svg PUBLIC "-//W3C//DTD SVG 1.1//EN" "http://www.w3.org/Graphics/SVG/1.1/DTD/svg11.dtd">
<svg version="1.1" xmlns="http://www.w3.org/2000/svg" xmlns:xlink="http://www.w3.org/1999/xlink" x="0px" y="0px" viewBox="0 0 256 256" enable-background="new 0 0 256 256" xml:space="preserve">
<metadata> Svg Vector Icons : http://www.onlinewebfonts.com/icon </metadata>
<g><g><g><path fill="#000000" d="M197.8,24.2c-7.8,7.8-14.4,14.2-14.5,14.2c-0.2,0-2.5-1.2-5.1-2.7c-11.9-6.8-25.6-11.6-39.3-13.6c-29.5-4.3-60,3.5-84.2,21.6c-5.6,4.2-15.5,13.8-20,19.5c-10.1,12.8-17.3,27.1-21.2,42.6c-18.3,73.1,38,142.9,113.2,140.2c27.7-1,53.1-11.6,73.3-30.9c31.4-29.8,42.9-75,29.6-116.2c-2.8-8.7-7-17.8-11.5-24.9c-0.7-1.1-0.2-1.7,13.6-15.6c14.6-14.6,15.4-15.6,13.5-17.5c-0.7-0.8-2.8-0.9-15-0.9H216V25.9c0-13-0.1-14.2-1-15c-0.5-0.5-1.4-0.9-2-0.9C212.4,10,206.5,15.5,197.8,24.2z M210.7,30.5v10.8l-11,11l-11,11V52.1V40.9l10.6-10.6c5.8-5.8,10.8-10.6,11-10.6C210.5,19.7,210.7,24.5,210.7,30.5z M143.4,28.5c12.2,2.6,23.6,6.9,33.4,12.8l5.6,3.4l0.2,12.3c0.1,11.7,0.1,12.4-0.9,13.3c-1,1-1.2,0.9-5-2.3c-11-9-23.5-15-38-18.1c-3.6-0.8-6.9-1-16.4-1c-10.4,0-12.4,0.2-17.4,1.2c-41.1,9.2-69.5,45.8-67.5,87c1,20.8,9.1,39.8,23.3,54.8c31.7,33.3,83.1,35.6,117.9,5.5c8.2-7.1,15.4-16.7,20.4-27.1c3.3-6.9,5-12,6.8-19.8c1.1-4.9,1.2-6.9,1.2-17.1c-0.1-9.9-0.2-12.3-1.2-17c-2.9-13.7-9.1-26.3-17.9-37.1l-3.2-3.9l1.2-1.3l1.3-1.4l11.8,0.4c13.6,0.4,11.9-0.4,16.6,7.8c5.7,10.1,10,21.7,12.2,33.5c1.5,7.5,1.9,23,1.1,30.9c-4.1,36.4-26,67.7-58.8,84.1c-32.9,16.5-72.6,14.6-103.9-4.8C26,199.7,7.1,151.9,19.1,105.8C28.7,69,58.4,39.4,95.4,29.9c10.6-2.7,15.4-3.2,29.1-3C135.3,27.1,137.8,27.2,143.4,28.5z M225.7,56.4l-11,11h-11h-11l11-11l11-11h11h11L225.7,56.4z M139.9,55.8c13.1,3.1,24.5,8.9,34.8,17.5l2.2,1.9l-7.7,7.7l-7.8,7.7l-2.8-2.1c-10.7-8.2-20.7-11.9-33.6-12.4c-11.1-0.4-19.3,1.4-28.7,6.2C65.5,98,55.5,136.7,74.6,165.5c7.3,11.1,19.1,19.7,32,23.4c27.3,7.8,56.1-5.4,68.2-31.2c5.8-12.4,6.9-28.1,2.7-41.2c-1.8-5.7-6-13.7-9.3-17.9c-1.5-1.8-2.7-3.5-2.7-3.8c0-0.2,3.4-3.8,7.7-8l7.7-7.7l2.8,3.5c8.6,10.6,14,21.8,16.8,34.8c1.6,7.4,1.7,24,0.2,31c-3.6,17-10.2,29.3-22,41.1c-9.1,9.1-18.1,14.9-29.6,19c-23.9,8.5-50,5.2-71.2-9.1C41.7,175,32,125.7,56.3,89.1c11.3-17,29.7-29.3,49.5-33.5c7.7-1.6,7.6-1.6,18.5-1.4C132.6,54.4,135.1,54.6,139.9,55.8z M134.4,82.7c7.1,1.7,15.8,6.1,20.7,10.2l2.1,1.8l-12.6,12.6l-12.6,12.6l-2.8-1.3c-8.9-4.1-19.7,0.9-22.5,10.2c-1.7,5.8-0.5,11.2,3.6,15.7c3.5,3.9,7,5.4,12.2,5.3c4.7-0.1,8.2-1.4,11.4-4.6c3.5-3.5,4.5-5.9,4.5-11.7c0-4.2-0.2-5.5-1.2-7.3l-1.2-2.2l12.6-12.6l12.6-12.6l1.8,2.1c4.2,4.9,8.4,13.6,10.3,21c1.4,5.7,1.3,17.8-0.3,24.1c-1.5,5.8-5.5,14.3-9.1,19c-21,27.7-63,27.3-83.7-0.8c-12.7-17.2-13.3-41.7-1.3-59.7c2.7-4.2,8.8-10.5,12.8-13.4c6.3-4.5,14.5-7.9,22.2-9.3C118.2,81.2,130.3,81.7,134.4,82.7z M127.4,123.7c9.4,4.8,7.3,18.8-3.2,20.7c-6.8,1.2-13.5-5.3-12.6-12.2c0.4-3.2,3-6.8,5.7-8.3C120.3,122.4,124.6,122.2,127.4,123.7z"/></g></g></g>
</svg>